# xmcd
#
# Track frame offsets:
#	150
#	16327
#	37638
#	56171
#	71316
#	85742
#	104610
#	116957
#	136646
#	153742
#	171530
#	186060
#
# Disc length: 2725 seconds
#
# Revision: 1
# Processed by: cddbd v1.5.2PL0 Copyright (c) Steve Scherf et al.
# Submitted via: audiograbber 1.83.01
#
DISCID=9d0aa30c
DTITLE=Various Artist - CDX Volume 491 - 1/18/2010
DYEAR=2010
DGENRE=Country
TTITLE0=Lady Antebellum - American Honey
TTITLE1=Jo Dee Messina - That's God
TTITLE2=Craig Morgan - This Ain't Nothin'
TTITLE3=Freddy Weller - Your Memory Walks Through Walls
TTITLE4=Ash Bowers - Ain't No Stopping Her Now
TTITLE5=Melanie May - Green
TTITLE6=Jeff Bridges and Colin Farrell - Fallin' and Flyin'
TTITLE7=Ryan Bingham - The Weary Kind
TTITLE8=Brantley Gilbert - Kick It In The Sticks
TTITLE9=Joel Warren - Leavin' Lubbock
TTITLE10=Mustang Creek - Love Makes The World Go Round
TTITLE11=Ashley Harris - Unfinished Woman
EXTD=
EXTT0=
EXTT1=
EXTT2=
EXTT3=
EXTT4=
EXTT5=
EXTT6=
EXTT7=
EXTT8=
EXTT9=
EXTT10=
EXTT11=
PLAYORDER=
